<?xml version="1.0" standalone="no"?>
<!DOCTYPE svg PUBLIC "-//W3C//DTD SVG 20010904//EN"
 "http://www.w3.org/TR/2001/REC-SVG-20010904/DTD/svg10.dtd">
<svg version="1.0" xmlns="http://www.w3.org/2000/svg"
 width="1624.000000pt" height="968.000000pt" viewBox="0 0 1624.000000 968.000000"
 preserveAspectRatio="xMidYMid meet">

<g transform="translate(0.000000,968.000000) scale(0.100000,-0.100000)"
fill="#0F172A" stroke="none">
<path d="M5855 9372 c-57 -27 -80 -85 -53 -135 6 -12 55 -68 109 -125 335
-352 640 -921 773 -1445 65 -252 90 -453 89 -707 0 -209 -18 -368 -63 -561
-17 -70 -30 -130 -29 -135 1 -17 22 42 45 131 45 167 66 319 71 526 10 370
-41 679 -185 1109 -3 10 -2 12 6 5 13 -12 93 -250 121 -360 58 -231 97 -583
86 -790 -18 -361 -85 -644 -215 -910 -98 -202 -264 -425 -315 -425 -16 0 -13
6 17 38 81 85 197 261 277 420 43 87 86 200 79 208 -3 2 -17 -30 -32 -73 -68
-193 -215 -423 -366 -573 -115 -113 -129 -140 -105 -197 20 -46 56 -66 120
-64 111 2 186 27 394 130 684 338 1510 549 2066 528 187 -7 307 -24 500 -71
109 -27 143 -32 152 -23 37 36 42 647 8 867 -87 553 -360 1105 -745 1504 -473
489 -1075 810 -1915 1020 -218 54 -556 108 -755 121 -80 5 -101 3 -135 -13z
m31 -63 c15 -17 16 -22 4 -29 -15 -9 -44 2 -56 21 -3 6 0 15 7 20 20 12 24 11
45 -12z m555 1 c498 -88 981 -247 1335 -438 277 -149 411 -235 583 -372 120
-96 360 -333 411 -405 25 -36 6 -20 -65 55 -200 212 -326 322 -533 467 -443
311 -1027 539 -1732 678 -74 15 -137 29 -139 31 -8 8 27 4 140 -16z m-179 -6
c299 -41 695 -139 988 -244 128 -46 303 -120 297 -126 -2 -3 -77 23 -165 56
-195 72 -351 120 -537 165 -168 41 -532 108 -705 131 -69 9 -134 20 -145 24
-35 15 147 11 267 -6z m-245 -210 c94 -115 237 -322 327 -475 79 -132 159
-295 154 -310 -2 -6 -30 41 -62 105 -61 122 -163 295 -218 371 -93 128 -212
281 -252 326 -44 48 -58 79 -37 79 6 0 45 -43 88 -96z m1740 -271 c382 -175
747 -458 994 -773 65 -82 121 -159 142 -195 3 -7 -12 -11 -40 -12 -56 -2 -111
26 -261 133 -57 41 -113 79 -125 85 -12 7 -47 35 -78 63 -96 87 -172 151 -219
183 -25 17 -54 41 -65 53 -11 13 -44 38 -73 57 -30 19 -82 58 -115 86 -34 29
-89 72 -122 96 -33 24 -89 73 -125 110 -36 36 -85 82 -108 102 -46 39 -50 50
-26 74 23 23 55 14 221 -62z m-1193 -649 c3 -8 2 -12 -4 -9 -6 3 -10 10 -10
16 0 14 7 11 14 -7z m2306 -210 c18 -26 29 -45 24 -42 -5 4 -25 28 -44 54 -18
26 -29 45 -24 42 5 -4 25 -28 44 -54z m531 -1997 c-19 -19 -28 50 -20 148 4
55 12 163 16 240 8 137 8 135 11 -119 1 -143 -2 -264 -7 -269z m-596 53 c33
-5 -17 -7 -145 -7 -131 0 -171 3 -120 7 108 9 208 9 265 0z m-506 -24 c-2 -2
-33 -6 -69 -9 -41 -4 -56 -3 -40 3 25 8 117 14 109 6z m-304 -57 c-88 -22
-223 -57 -300 -79 -78 -22 -150 -40 -160 -40 -11 0 -65 -16 -120 -36 -55 -19
-133 -46 -172 -59 -40 -13 -101 -37 -135 -53 -35 -16 -83 -36 -108 -45 -50
-17 -308 -128 -354 -152 -16 -9 -31 -14 -33 -11 -7 6 173 96 301 151 339 145
781 284 1081 340 179 34 179 28 0 -16z m1375 22 c0 -26 -41 -34 -106 -21 -30
6 -54 14 -54 17 0 5 81 -4 112 -13 10 -3 19 3 23 16 8 25 25 26 25 1z m-3120
-474 c0 -19 -21 -37 -42 -37 -21 0 -24 20 -6 38 16 16 48 15 48 -1z m320 -47
c-8 -5 -19 -10 -25 -10 -5 0 -3 5 5 10 8 5 20 10 25 10 6 0 3 -5 -5 -10z m-40
-14 c0 -5 -79 -51 -102 -59 -10 -4 -18 -3 -18 2 0 4 26 20 58 34 62 29 62 29
62 23z m-250 -60 c0 -2 -7 -6 -15 -10 -8 -3 -15 -1 -15 4 0 6 7 10 15 10 8 0
15 -2 15 -4z"/>
<path d="M10186 6668 c-8 -13 -28 -74 -45 -136 -86 -313 -155 -411 -451 -647
-216 -172 -500 -351 -765 -479 -689 -336 -1792 -558 -2888 -583 -329 -7 -345
-10 -380 -70 -16 -28 -16 -35 -4 -65 19 -45 28 -51 142 -93 55 -20 152 -56
215 -80 235 -88 541 -185 730 -230 63 -16 122 -30 130 -33 32 -10 -40 -19
-205 -26 -301 -12 -901 -59 -913 -71 -3 -3 -2 -8 2 -12 4 -5 1055 -8 2336 -8
1281 0 2332 3 2336 8 4 4 5 9 2 12 -24 24 -792 67 -1460 81 -170 4 -308 11
-308 15 0 5 19 13 43 20 69 18 255 97 357 151 207 110 437 277 603 437 90 86
303 344 357 430 118 190 280 567 280 651 0 10 21 61 47 112 40 80 63 109 155
201 86 86 108 114 108 136 0 36 -112 263 -117 239 -5 -19 -18 -24 -27 -9 -3 5
-31 12 -62 16 -32 4 -67 11 -78 15 -18 8 -17 9 9 9 17 0 51 -4 78 -8 81 -13
52 5 -35 23 -120 23 -174 22 -192 -6z m74 2 c0 -5 -2 -10 -4 -10 -3 0 -8 5
-11 10 -3 6 -1 10 4 10 6 0 11 -4 11 -10z m-20 -44 c0 -61 -75 -225 -94 -205
-2 2 9 42 25 89 16 47 29 97 29 111 0 14 3 28 6 32 12 11 34 -6 34 -27z m145
-6 c72 -11 83 -15 72 -26 -9 -10 -178 23 -191 37 -8 8 -3 10 19 5 17 -3 61
-10 100 -16z m-215 -224 c0 -2 -9 -32 -20 -66 -23 -71 -66 -151 -113 -209 -18
-21 -52 -65 -77 -96 -166 -213 -648 -542 -1055 -721 -146 -63 -462 -177 -479
-171 -6 2 7 10 29 17 107 34 405 159 527 221 241 121 482 273 708 448 86 66
300 268 300 282 0 7 81 141 120 199 9 14 20 42 24 63 4 22 13 37 21 37 8 0 15
-2 15 -4z m230 -174 c0 -5 -9 -17 -20 -27 -22 -20 -26 -14 -10 16 11 19 30 26
30 11z m-308 -675 c-33 -68 -65 -127 -71 -131 -14 -9 -10 -1 63 147 32 64 61
115 64 113 2 -3 -23 -61 -56 -129z m-222 -361 c0 -2 -8 -10 -17 -17 -16 -13
-17 -12 -4 4 13 16 21 21 21 13z m-2202 -211 c-17 -17 -580 -111 -617 -102 -9
2 25 9 74 17 50 7 185 30 300 50 215 38 252 44 243 35z m159 -1 c-3 -3 -12 -4
-19 -1 -8 3 -5 6 6 6 11 1 17 -2 13 -5z m-62 -15 c-92 -29 -516 -105 -765
-138 -457 -60 -1240 -92 -1240 -50 0 5 78 9 178 9 395 1 824 27 1072 65 52 8
165 24 250 35 85 12 229 36 320 54 164 34 250 45 185 25z m-762 -96 c-7 -2
-21 -2 -30 0 -10 3 -4 5 12 5 17 0 24 -2 18 -5z m-103 -13 c-30 -5 -71 -8 -90
-8 -31 1 -30 2 10 8 25 4 65 7 90 7 44 0 44 0 -10 -7z m-137 -17 c-7 -2 -21
-2 -30 0 -10 3 -4 5 12 5 17 0 24 -2 18 -5z m-375 -30 c-10 -2 -28 -2 -40 0
-13 2 -5 4 17 4 22 1 32 -1 23 -4z m-670 -45 c20 -20 14 -30 -15 -26 -32 4
-46 38 -16 38 11 0 24 -5 31 -12z m1272 -528 c19 -6 9 -8 -35 -8 -42 -1 -54 2
-40 8 24 10 42 10 75 0z m1640 2 c0 -5 172 -12 383 -15 388 -7 1104 -34 1122
-43 6 -2 -93 -2 -220 1 -755 19 -1041 24 -1302 25 -166 0 -294 4 -298 9 -3 5
23 12 57 15 35 3 77 8 93 9 63 8 165 7 165 -1z m-1957 -39 c-29 -2 -77 -2
-105 0 -29 2 -6 3 52 3 58 0 81 -1 53 -3z m-260 -10 c-24 -2 -62 -2 -85 0 -24
2 -5 4 42 4 47 0 66 -2 43 -4z m3800 -20 c-7 -2 -19 -2 -25 0 -7 3 -2 5 12 5
14 0 19 -2 13 -5z"/>
<path d="M2821 3857 c-8 -11 -10 -310 -9 -1148 l3 -1134 235 -3 c184 -2 232 0
222 10 -15 15 -17 202 -2 193 6 -3 10 -44 10 -90 0 -46 5 -87 10 -90 6 -4 10
22 10 69 0 42 2 76 5 76 3 0 33 -23 67 -50 191 -154 462 -191 733 -101 231 78
414 263 489 496 46 145 59 355 31 513 -17 96 -73 244 -122 321 -76 119 -205
230 -344 295 -112 54 -177 67 -319 67 -107 1 -138 -3 -215 -26 -101 -29 -178
-69 -247 -126 -26 -21 -49 -39 -52 -39 -3 0 -7 174 -8 388 l-3 387 -241 3
c-195 2 -243 0 -253 -11z m459 -11 c0 -5 -75 -56 -84 -56 -4 0 -5 4 -2 8 5 9
-177 22 -296 22 -32 0 -58 4 -58 10 0 6 81 11 208 13 114 1 213 3 220 5 6 1
12 0 12 -2z m9 -529 c1 -163 -2 -208 -11 -205 -10 4 -14 69 -16 274 -1 148 1
280 5 294 11 38 21 -122 22 -363z m724 -73 c140 -32 271 -108 378 -220 86 -90
92 -119 10 -41 -147 138 -266 209 -418 248 -125 31 -100 42 30 13z m-118 -9
c44 -9 103 -23 130 -31 79 -26 201 -93 247 -136 l43 -39 -47 31 c-133 86 -379
170 -502 170 -112 0 -257 -53 -394 -145 -30 -19 -56 -35 -59 -35 -2 0 19 21
49 46 68 59 143 96 243 123 136 35 177 37 290 16z m-607 -193 c2 -7 -3 -12
-12 -12 -9 0 -16 7 -16 16 0 17 22 14 28 -4z m555 -218 c23 -8 63 -28 89 -45
136 -88 207 -266 180 -451 -27 -183 -131 -301 -305 -344 -131 -33 -279 16
-380 126 -189 203 -132 570 107 692 90 46 215 55 309 22z m-442 -91 c-12 -23
-61 -69 -61 -58 0 8 60 75 67 75 2 0 -1 -8 -6 -17z m-76 -524 c9 -17 14 -33
11 -36 -4 -4 -36 49 -36 62 0 13 11 2 25 -26z m765 -47 c0 -34 -121 -162 -153
-162 -7 0 141 167 151 169 1 1 2 -3 2 -7z m-642 -132 c77 -52 158 -80 252 -88
l75 -6 -50 -8 c-99 -15 -222 25 -306 102 -24 21 -41 39 -38 40 4 0 34 -18 67
-40z m1036 -138 c-61 -88 -133 -153 -222 -200 -45 -24 -82 -41 -82 -39 0 3 29
23 64 46 63 41 196 170 196 190 0 16 74 84 78 71 2 -6 -13 -37 -34 -68z"/>
<path d="M5310 3254 c-52 -8 -141 -31 -198 -49 -109 -37 -320 -139 -328 -159
-5 -12 151 -342 165 -350 4 -3 35 14 71 36 35 22 86 49 114 59 152 53 361 69
469 36 101 -31 186 -130 187 -217 l0 -35 -201 3 c-309 5 -454 -16 -598 -86
-255 -124 -359 -410 -240 -659 34 -71 113 -157 182 -197 109 -65 297 -104 442
-92 148 11 303 68 384 141 21 19 41 35 45 35 3 0 6 -34 6 -75 l0 -75 239 0
c194 0 241 3 250 14 9 11 11 153 8 568 -3 528 -4 556 -25 630 -67 241 -226
391 -487 458 -109 29 -351 36 -485 14z m455 -26 c54 -9 211 -66 203 -73 -2 -2
-66 14 -142 36 -76 21 -157 39 -180 39 -23 0 -48 5 -56 10 -17 12 71 6 175
-12z m-5 -38 c102 -25 211 -76 265 -124 l40 -36 -59 35 c-32 19 -79 37 -105
40 -60 8 -178 43 -205 60 -19 13 -99 28 -196 38 -19 2 12 4 70 5 75 1 129 -4
190 -18z m-585 -8 c-6 -5 -39 -19 -75 -32 -36 -13 -112 -45 -169 -72 -66 -30
-108 -45 -114 -39 -18 18 288 150 348 151 11 0 15 -3 10 -8z m-45 -374 c-25
-11 -71 -36 -103 -55 -32 -19 -60 -33 -63 -30 -9 9 64 59 123 83 70 29 106 30
43 2z m1147 -210 c-3 -7 -5 -2 -5 12 0 14 2 19 5 13 2 -7 2 -19 0 -25z m-462
-59 c-3 -3 -127 -9 -277 -12 -216 -5 -292 -10 -363 -25 -101 -22 -200 -60
-260 -99 -38 -25 -39 -25 -20 -3 25 29 158 92 245 116 54 15 115 18 358 21
250 4 294 7 299 20 5 11 7 12 14 2 4 -7 6 -16 4 -20z m-71 -285 l46 -7 0 -58
c0 -107 -62 -198 -169 -247 -68 -32 -205 -42 -278 -22 -59 17 -118 72 -132
126 -26 97 39 179 162 204 51 10 307 12 371 4z m-542 -86 c-7 -7 -12 -8 -12
-2 0 14 12 26 19 19 2 -3 -1 -11 -7 -17z m604 -64 c-4 -14 -9 -24 -12 -21 -3
2 -2 17 2 31 3 15 9 25 11 22 3 -3 2 -17 -1 -32z m-55 -103 c-14 -26 -78 -81
-109 -92 -54 -21 -43 0 25 43 39 25 74 51 77 57 12 19 17 12 7 -8z m-480 -90
c24 -11 85 -25 134 -31 50 -7 92 -15 95 -17 3 -3 -38 -3 -90 -1 -82 3 -103 8
-143 31 -26 15 -47 30 -47 32 0 8 5 6 51 -14z m1016 -326 c-1 0 -27 3 -57 6
-50 5 -51 6 -14 7 51 2 54 7 55 125 l2 92 8 -115 c4 -63 7 -115 6 -115z m-515
127 c-47 -36 -168 -102 -187 -102 -5 0 23 18 63 39 40 21 91 54 115 74 23 19
45 33 49 30 5 -2 -13 -21 -40 -41z m-339 -139 c-7 -2 -21 -2 -30 0 -10 3 -4 5
12 5 17 0 24 -2 18 -5z"/>
<path d="M7315 3256 c-102 -23 -193 -65 -288 -132 -26 -19 -49 -34 -52 -34 -2
0 -5 33 -7 73 l-3 72 -250 0 -250 0 -3 -833 -2 -832 252 2 253 3 5 475 c6 523
6 520 71 622 99 154 359 195 502 77 43 -35 92 -132 103 -204 5 -27 9 -257 9
-510 l0 -460 239 -3 c173 -2 242 1 253 10 12 10 14 96 11 582 l-3 571 -29 85
c-69 211 -206 353 -401 417 -67 22 -102 27 -215 29 -90 2 -155 -1 -195 -10z
m79 -34 c3 -5 -29 -16 -70 -25 -41 -9 -113 -33 -160 -53 -47 -20 -87 -34 -89
-32 -3 2 24 21 59 41 85 50 245 92 260 69z m-682 -22 c132 0 208 4 208 10 0 6
8 10 17 10 14 0 14 -3 -5 -20 -20 -19 -35 -20 -222 -20 -161 0 -204 3 -216 14
-8 8 -14 18 -14 22 0 5 5 3 12 -4 9 -9 72 -12 220 -12z m918 6 c70 -15 163
-53 195 -81 l20 -17 -20 8 c-98 35 -132 45 -217 63 -53 12 -110 21 -127 21
-16 0 -33 5 -36 10 -9 15 108 12 185 -4z m-680 -177 c0 -5 -4 -9 -10 -9 -5 0
-10 7 -10 16 0 8 5 12 10 9 6 -3 10 -10 10 -16z m1187 -1406 c-3 -10 -5 -2 -5
17 0 19 2 27 5 18 2 -10 2 -26 0 -35z m-1188 -36 c-2 -3 -24 -1 -49 3 -29 5
-35 8 -18 9 15 0 30 6 34 12 4 7 11 6 22 -5 9 -8 14 -17 11 -19z m1191 1 c0
-6 -7 -7 -16 -4 -9 3 -75 7 -147 8 l-132 2 135 6 c142 5 160 4 160 -12z
m-1387 5 c-23 -2 -64 -2 -90 0 -26 2 -7 3 42 3 50 0 71 -1 48 -3z"/>
<path d="M8933 3260 c-166 -21 -330 -71 -476 -145 -56 -28 -103 -58 -105 -67
-4 -21 148 -348 162 -348 6 0 55 22 109 49 125 63 244 92 382 93 213 1 333
-74 360 -223 l7 -37 -284 -5 c-328 -5 -389 -16 -537 -92 -183 -95 -271 -233
-271 -426 0 -184 64 -312 203 -408 91 -62 263 -111 392 -111 184 0 389 64 465
145 13 14 27 25 31 25 5 0 9 -30 11 -67 l3 -68 240 0 240 0 3 545 c2 459 0
557 -13 622 -20 101 -64 208 -110 266 -84 109 -233 197 -390 232 -104 24 -314
33 -422 20z m-68 -65 c-163 -41 -259 -73 -370 -125 -53 -24 -96 -38 -107 -34
-20 6 81 59 222 116 86 35 273 77 340 76 36 0 20 -6 -85 -33z m543 -23 c51
-18 110 -43 130 -57 47 -32 40 -31 -50 4 -70 28 -203 58 -353 80 -66 9 -63 9
55 7 110 -2 136 -6 218 -34z m-693 -352 c-3 -5 -12 -10 -18 -10 -7 0 -48 -20
-91 -45 -50 -28 -72 -37 -60 -24 20 22 75 53 133 74 45 17 43 17 36 5z m681
-276 c-4 -11 -39 -14 -179 -14 -335 0 -507 -25 -654 -95 -88 -43 -175 -125
-216 -205 -28 -54 -29 -55 -23 -17 7 52 130 179 229 235 131 75 189 85 529 90
l297 4 8 36 c7 35 8 36 11 9 2 -16 1 -35 -2 -43z m-348 -261 c-10 -2 -26 -2
-35 0 -10 3 -2 5 17 5 19 0 27 -2 18 -5z m-65 -10 c-7 -2 -21 -2 -30 0 -10 3
-4 5 12 5 17 0 24 -2 18 -5z m365 -19 c19 -6 22 -13 22 -63 0 -137 -104 -248
-265 -281 -116 -24 -251 14 -294 83 -72 117 -11 226 144 257 47 9 360 12 393
4z m27 -196 c-31 -60 -125 -146 -185 -169 -78 -30 -234 -38 -295 -15 -55 21
-71 41 -18 22 21 -7 70 -17 109 -21 165 -16 339 89 390 236 8 23 8 23 12 2 2
-12 -4 -37 -13 -55z m-25 -349 c-25 -21 -49 -39 -55 -39 -5 0 13 20 40 44 28
24 52 42 55 39 3 -2 -15 -22 -40 -44z m505 -125 c0 0 -20 2 -45 5 l-45 5 35 5
c34 6 35 7 40 61 l4 55 6 -65 c3 -36 5 -65 5 -66z m-708 20 c-3 -3 -12 -4 -19
-1 -8 3 -5 6 6 6 11 1 17 -2 13 -5z m556 -11 c-23 -2 -64 -2 -90 0 -26 2 -7 3
42 3 50 0 71 -1 48 -3z"/>
<path d="M10915 3264 c-165 -43 -258 -84 -336 -145 -20 -16 -42 -29 -48 -29
-6 0 -11 30 -13 73 l-3 72 -220 3 c-121 1 -226 0 -233 -3 -11 -4 -12 -8 -2
-20 10 -12 48 -15 214 -15 144 0 205 3 214 12 7 7 12 9 12 4 0 -4 -7 -14 -15
-23 -22 -22 -373 -20 -417 3 -15 8 -28 19 -28 24 0 6 -4 10 -10 10 -7 0 -10
-283 -10 -830 l0 -830 244 0 c135 0 247 4 250 8 3 5 6 179 6 388 2 557 13 638
102 738 130 149 399 151 507 4 17 -23 41 -67 53 -98 22 -54 23 -65 26 -548 l3
-492 242 2 242 3 7 190 c4 105 6 357 4 560 -2 366 -2 371 -29 469 -34 126 -93
231 -170 302 -62 57 -187 125 -277 150 -56 15 -278 28 -315 18z m-32 -51 c4
-3 -30 -18 -76 -33 -45 -14 -104 -39 -130 -54 -51 -30 -60 -29 -24 4 54 52
207 107 230 83z m316 -19 c66 -16 176 -62 168 -70 -2 -2 -34 7 -71 21 -37 14
-108 32 -159 41 -117 19 -124 22 -58 23 30 1 84 -6 120 -15z m-1139 -449 c0
-290 -3 -445 -10 -445 -7 0 -10 155 -10 445 0 290 3 445 10 445 7 0 10 -155
10 -445z m455 285 c-3 -5 -10 -10 -16 -10 -5 0 -9 5 -9 10 0 6 7 10 16 10 8 0
12 -4 9 -10z m-5 -1392 l0 -53 -122 4 c-74 2 -115 6 -103 11 11 4 62 6 113 3
l92 -5 0 39 c0 35 6 53 17 53 2 0 3 -24 3 -52z m1178 -51 c-2 -1 -68 0 -148 3
l-145 5 140 5 c140 5 140 5 145 30 4 22 5 21 8 -8 2 -19 2 -35 0 -35z"/>
<path d="M12445 3259 c-91 -13 -222 -48 -304 -81 -89 -35 -231 -105 -248 -121
-9 -9 8 -52 73 -184 46 -94 88 -174 93 -177 5 -4 38 12 73 33 78 49 216 96
327 111 236 32 411 -55 437 -217 l7 -43 -219 0 c-339 0 -463 -23 -623 -113
-97 -55 -160 -117 -199 -197 -108 -221 -33 -483 179 -624 147 -97 391 -131
584 -81 81 21 180 68 231 110 23 19 45 35 48 35 3 0 6 -30 8 -67 l3 -68 245 0
245 0 0 570 c0 513 -2 577 -18 635 -62 232 -223 389 -459 449 -154 40 -338 51
-483 30z m-38 -56 c-4 -3 -57 -22 -118 -40 -61 -19 -162 -56 -225 -84 -103
-46 -134 -53 -134 -30 0 14 242 120 310 135 99 22 179 32 167 19z m543 -34
c19 -5 46 -16 60 -24 l25 -15 -25 5 c-14 4 -56 17 -95 30 -65 23 -44 25 35 4z
m-906 -389 c7 -24 7 -25 -9 -5 -29 36 -76 135 -69 147 7 11 65 -94 78 -142z
m898 -220 l3 -25 -270 -7 c-289 -6 -381 -18 -494 -63 -58 -22 -133 -62 -172
-89 -8 -6 -1 2 15 17 52 48 147 95 236 118 75 19 121 22 376 26 l291 5 -2 29
c-2 35 13 25 17 -11z m-979 -222 c-4 -7 -24 -39 -45 -70 -21 -31 -38 -63 -38
-70 0 -8 -5 -6 -11 5 -16 27 -1 58 49 104 50 45 58 50 45 31z m615 -55 c-10
-2 -26 -2 -35 0 -10 3 -2 5 17 5 19 0 27 -2 18 -5z m-88 -13 c-34 -11 -60 -11
-35 0 11 5 29 8 40 8 16 0 15 -2 -5 -8z m380 -17 l33 -6 -6 -57 c-10 -109 -69
-200 -161 -247 -41 -21 -69 -28 -141 -31 -104 -5 -161 8 -205 44 -42 36 -60
74 -60 129 0 82 45 135 138 160 50 14 344 20 402 8z m60 -145 c0 -24 -46 -108
-60 -108 -20 0 -18 19 5 46 24 28 29 39 26 58 -1 5 0 15 3 23 8 20 26 6 26
-19z m-111 -164 c-47 -51 -153 -85 -253 -83 -36 1 -33 3 29 16 122 26 170 42
206 67 44 32 48 32 18 0z m111 -194 c0 -5 -5 -10 -11 -10 -5 0 -7 5 -4 10 3 6
8 10 11 10 2 0 4 -4 4 -10z m-56 -44 c-16 -14 -33 -26 -39 -26 -5 0 6 13 25
29 42 35 54 32 14 -3z m513 -73 c-2 -16 -4 -5 -4 22 0 28 2 40 4 28 2 -13 2
-35 0 -50z m-95 -40 c-51 -2 -132 -2 -180 0 -48 1 -6 3 93 3 99 0 138 -2 87
-3z m-727 -18 c-23 -8 -83 -10 -79 -3 3 4 24 8 47 7 23 0 38 -2 32 -4z"/>
<path d="M3203 940 c-23 -9 -23 -13 -23 -175 0 -91 -4 -165 -9 -165 -4 0 -30
28 -56 63 -27 34 -87 110 -134 169 -85 106 -87 108 -128 108 l-43 0 0 -250 0
-250 39 0 c22 0 43 4 46 10 3 6 -1 7 -9 4 -14 -5 -16 8 -15 102 l2 109 11 -95
11 -95 3 95 c4 120 -6 223 -20 214 -7 -4 -8 -2 -4 4 4 7 11 12 15 12 5 0 73
-81 152 -180 139 -175 144 -180 180 -180 21 0 38 5 40 13 2 6 3 121 1 255 -4
264 -1 255 -59 232z m-313 -18 c0 -8 163 -213 244 -306 27 -31 46 -60 42 -64
-4 -4 -18 5 -29 19 -130 156 -189 229 -225 276 -23 32 -54 62 -70 69 l-27 12
33 1 c17 1 32 -3 32 -7z m350 -1 c0 -5 -9 -7 -20 -4 -11 3 -20 7 -20 9 0 2 9
4 20 4 11 0 20 -4 20 -9z m-363 -208 c-3 -10 -5 -2 -5 17 0 19 2 27 5 18 2
-10 2 -26 0 -35z m373 -203 c0 -33 -3 -60 -7 -60 -5 0 -6 27 -5 60 5 77 12 77
12 0z"/>
<path d="M6427 943 c-4 -3 -7 -16 -7 -27 0 -31 -81 -196 -93 -189 -6 3 -7 1
-3 -5 9 -15 -64 -173 -77 -165 -5 3 -7 1 -4 -5 10 -15 -3 -43 -16 -35 -6 4 -8
0 -4 -11 4 -10 -1 -23 -13 -33 -29 -25 -25 -33 15 -33 19 0 35 3 35 8 0 4 12
20 26 37 14 16 28 41 30 55 l5 25 138 -3 138 -3 26 -60 c25 -58 26 -59 66 -59
23 0 41 3 41 6 0 6 -75 178 -157 359 -52 116 -84 170 -68 115 7 -21 5 -23 -6
-13 -8 6 -27 13 -44 16 l-30 4 33 2 c17 0 32 6 32 11 0 11 -53 14 -63 3z m88
-198 c27 -64 55 -120 64 -125 11 -6 -28 -9 -111 -10 -105 0 -128 3 -128 14 0
8 5 18 10 21 6 3 10 1 10 -4 0 -6 3 -11 8 -11 4 0 8 19 9 41 0 23 5 44 11 48
15 10 33 51 27 61 -3 6 -2 10 4 10 5 0 15 16 21 35 6 19 15 35 20 35 4 0 29
-52 55 -115z m54 40 c0 -5 -8 6 -19 25 -11 19 -19 40 -19 45 0 6 8 -6 19 -25
11 -19 19 -39 19 -45z m41 -100 c0 -5 -5 -3 -10 5 -5 8 -10 20 -10 25 0 6 5 3
10 -5 5 -8 10 -19 10 -25z m49 -110 c0 -5 -6 1 -14 15 -8 14 -14 30 -14 35 0
6 6 -1 14 -15 8 -14 14 -29 14 -35z m35 -72 c14 -29 22 -53 18 -53 -8 0 -21
28 -51 105 -9 25 9 -5 33 -52z"/>
<path d="M6478 633 c12 -2 32 -2 45 0 12 2 2 4 -23 4 -25 0 -35 -2 -22 -4z"/>
<path d="M9559 943 c-18 -4 -17 -7 106 -288 28 -66 60 -141 70 -167 17 -47 18
-48 61 -48 39 0 44 3 44 23 1 12 16 54 36 92 19 39 32 62 29 53 -3 -10 -7 -26
-10 -35 -3 -10 10 15 30 56 35 75 46 107 20 61 -8 -14 -14 -20 -14 -15 0 15
48 102 49 90 1 -5 21 30 45 80 24 49 41 93 39 97 -7 11 -46 10 -64 -3 -11 -8
-7 -9 18 -6 20 2 31 0 29 -7 -2 -6 -15 -10 -29 -8 -23 3 -29 -7 -91 -145 -36
-81 -75 -172 -87 -200 -16 -37 -28 -53 -41 -53 -11 0 -19 5 -19 11 0 5 4 8 9
4 6 -3 15 3 21 14 9 17 8 19 -5 15 -9 -4 -17 1 -21 12 -17 49 -147 351 -156
362 -10 12 -37 14 -69 5z m61 -23 c0 -12 -8 -12 -35 0 -18 8 -17 9 8 9 15 1
27 -3 27 -9z"/>
<path d="M12868 944 c-6 -5 33 -72 140 -240 l52 -81 0 -91 0 -92 39 0 39 0 4
83 c4 66 2 85 -11 96 -13 11 -13 13 -1 9 17 -6 75 77 65 92 -3 5 0 12 6 16 8
5 9 3 4 -6 -5 -9 -4 -11 4 -6 6 4 9 12 5 17 -3 5 17 45 45 89 28 43 51 81 51
84 0 4 -8 6 -17 6 -12 0 -45 -44 -97 -125 -43 -69 -82 -125 -87 -125 -15 0
-19 18 -5 23 8 3 49 58 90 122 73 112 78 116 109 114 17 -2 33 1 35 6 1 6 -13
11 -33 13 -35 3 -36 2 -116 -122 -45 -69 -85 -126 -88 -126 -4 0 -14 11 -21
25 -7 13 -18 22 -23 18 -6 -3 -7 -1 -3 5 6 11 -88 181 -108 194 -13 9 -70 10
-78 2z m82 -29 c11 -13 8 -13 -19 -4 -35 12 -40 19 -12 19 10 0 24 -7 31 -15z"/>
<path d="M9921 812 c-32 -65 -52 -112 -47 -112 6 0 77 152 73 156 -2 2 -14
-18 -26 -44z"/>
<path d="M9832 615 c-17 -37 -14 -45 4 -12 9 16 14 31 11 33 -2 2 -9 -7 -15
-21z"/>
</g>
</svg>
